<svg width="64" height="64" viewBox="0 0 64 64" fill="none" xmlns="http://www.w3.org/2000/svg">
<rect width="64" height="64" rx="3" fill="#4479FF"/>
<g clip-path="url(#clip0_17_1447)">
<path d="M14.7497 49.25C14.2413 49.25 13.7538 49.0481 13.3944 48.6886C13.0349 48.3292 12.833 47.8417 12.833 47.3333V16.6667C12.833 16.1583 13.0349 15.6708 13.3944 15.3114C13.7538 14.9519 14.2413 14.75 14.7497 14.75H49.2497C49.758 14.75 50.2455 14.9519 50.605 15.3114C50.9644 15.6708 51.1663 16.1583 51.1663 16.6667V47.3333C51.1663 47.8417 50.9644 48.3292 50.605 48.6886C50.2455 49.0481 49.758 49.25 49.2497 49.25H14.7497ZM22.4163 28.1667H16.6663V45.4167H22.4163V28.1667ZM47.333 28.1667H26.2497V45.4167H47.333V28.1667ZM47.333 18.5833H16.6663V24.3333H47.333V18.5833Z" fill="white"/>
</g>
<defs>
<clipPath id="clip0_17_1447">
<rect width="46" height="46" fill="white" transform="translate(9 9)"/>
</clipPath>
</defs>
</svg>
